<svg xmlns="http://www.w3.org/2000/svg" xmlns:xlink="http://www.w3.org/1999/xlink" id="Layer_2" data-name="Layer 2" width="397" height="423.11" viewBox="0 0 397 423.11"><defs><style>      .cls-1 {        fill: url(#linear-gradient);        stroke-width: 0px;      }    </style><linearGradient id="linear-gradient" x1="0" y1="211.56" x2="397" y2="211.56" gradientUnits="userSpaceOnUse"><stop offset=".08" stop-color="#b1b9dd"></stop><stop offset=".16" stop-color="#b3addb"></stop><stop offset=".3" stop-color="#bb8fd6"></stop><stop offset=".49" stop-color="#c75fce"></stop><stop offset=".49" stop-color="#c85fce"></stop><stop offset=".52" stop-color="#ba57bf"></stop><stop offset=".59" stop-color="#9b47a0"></stop><stop offset=".65" stop-color="#843a87"></stop><stop offset=".73" stop-color="#733175"></stop><stop offset=".81" stop-color="#692b6b"></stop><stop offset=".9" stop-color="#662a68"></stop></linearGradient></defs><g id="Layer_1-2" data-name="Layer 1"><path class="cls-1" d="m293.3,50.27c1.79-16.75.43-33.51-4.09-50.27-9.4,16.92-19.81,32.38-31.23,46.41,1.68-3.35,2.76-6.45,3.25-9.3h2.44c-.77-.27-1.55-.52-2.32-.78.35-2.62.19-5.01-.51-7.18-.8,2.07-1.84,4.07-3.06,6.02-18.73-5.87-38.63-9.06-59.27-9.06C89.05,26.11,0,115.16,0,224.61c0,21.6,3.48,42.4,9.89,61.88.1.18.19.37.23.57.5,2.49,1.54,4.8,2.42,7.17.46.47.76,1.13.75,1.76,5.03,13,11.38,25.34,18.9,36.85.18.16.33.34.44.55.29.57.69,1.06,1.07,1.57.36.49.64,1.02,1,1.5.45.58.88,1.16,1.18,1.83,6.2,8.83,13.09,17.14,20.6,24.84,0,.01-.02.03-.02.04.11.08.22.17.33.27,0,0,0,0,0,0,.03.03.06.06.09.09-.04-.05-.03-.04.08.07-.02-.02-.05-.04-.07-.06.1.09.19.19.28.3.17.13.33.26.47.42.06.07.39.39.16.22.01.02.03.03.04.05.24.19.57.45.42.3.18.18.34.38.49.6,8.96,8.89,18.75,16.93,29.26,24,.06.03.12.06.18.1.05.03.41.28.56.44,0,0,0,.01.01.01.02,0,.03.01.05.02.18.07.43.16.6.25.02,0,.03.02.05.03,0,0,.02.01.03.02.16.13.32.25.49.38.02.02.04.04.07.06.01.02.03.03.04.05.04.03.08.06.13.09,7.03,4.6,14.37,8.77,21.97,12.46.09,0,.2.02.28.04.06.02.22.09.29.12.07.03.26.1.31.14.16.1.32.21.46.34,6.25,2.97,12.68,5.63,19.27,7.95h0c.1.04.19.09.29.13.42.03.78.15,1.07.34,20.19,6.94,41.84,10.72,64.35,10.72,19.43,0,38.22-2.82,55.98-8.05.16-.1.33-.17.52-.22.17-.05.33-.08.5-.08,8.02-2.41,15.82-5.3,23.38-8.66.05-.03.1-.08.15-.11.02,0,.05-.02.08-.04.33-.28.73-.51,1.15-.6.05-.01.09-.03.14-.04.11-.05.21-.1.32-.13l.29-.04c8.91-4.09,17.47-8.83,25.62-14.14.25-.29.54-.53.89-.74.23-.13.47-.23.71-.33,10.39-6.92,20.09-14.78,28.98-23.48.04-.09.09-.18.14-.26.07-.11.17-.22.24-.32.08-.11.16-.22.25-.32.11-.13.24-.25.38-.37.29-.25.59-.48.89-.7.08-.06.17-.11.25-.17,8.16-8.22,15.59-17.16,22.22-26.7.07-.2.15-.41.28-.61.19-.31.44-.62.72-.87.14-.12.29-.24.43-.37.08-.07.14-.16.21-.24.17-.24.32-.49.45-.75.08-.21.2-.41.33-.59-.02-.01-.04-.03-.06-.04,8.6-12.95,15.72-26.97,21.13-41.81.03-.33.12-.66.27-.96.17-.34.33-.69.48-1.04.03-.07.06-.14.08-.21.08-.2.15-.4.23-.6.03-.09.06-.19.09-.28.13-.73.32-1.45.58-2.14.07-.2.17-.38.28-.55,6.42-19.5,9.91-40.32,9.91-61.95,0-75.14-41.98-140.65-103.7-174.34Zm-9.66,38.45c1.67-4.22,3.13-8.43,4.4-12.65,50.28,30.42,83.97,85.61,83.97,148.54,0,22.2-4.2,43.44-11.83,62.98-1.25.04-2.5.07-3.75.07-6.43,0-12.86-.89-19.29-.91-8.82-.03-17.63.42-26.45.62-5.97.13-11.99.68-17.9.16-10.1-.89-20.1-2.98-30.2-3.68-17.15-1.19-34.34-1.89-52-2.74h-12.12c-.07-1.63-.11-3.35-.11-5.17.01-5.28.04-6.89-1.25-12.28-3.07-15.05-2.04-45.21,3.08-90.48,3.8-27.62,14.64-77.44,34.85-97.68,2.34-2.34,4.52-4.62,6.54-6.83-36.02,56.79-40.85,128.78-38.79,194.87,9.22-1.08,24.46-17.79,45.73-50.14-4.93,4.78-11.24,9.1-18.95,12.95,6.49-5.59,12.21-12.73,17.17-21.43,6.98-8.29,13.23-13.02,18.74-14.2-10.26-1.58-19.38,1.68-27.34,9.8-7.06,5.4-17.69,11.62-31.88,18.64,24.45-14.52,37.75-26.74,39.91-36.66,6.6-13.47,13.5-25.88,20.69-37.25-17.48,9.04-36.66,17.26-57.54,24.66,26.43-11.24,45.35-21.92,56.75-32.04,8.76-22.43,13.84-36.12,15.22-41.06-14.79,2.97-27.12,7.66-37.02,14.05,15.24-11.47,28.36-18.85,39.35-22.14Zm-28.63-51.6h1.49c-.48.68-.97,1.36-1.49,2.03v-2.03ZM15.26,286.82c-6.65-19.53-10.26-40.46-10.26-62.21C5,117.92,91.8,31.11,198.5,31.11c19.56,0,38.44,2.93,56.25,8.35-25.57,32.51-100.92,53.68-61.16,133.88-7.83-8.75-13.6-19.41-17.31-31.98-15.72,36.78-13.46,70.87,6.8,102.26-4.38-4.82-10.39-11.91-18.01-21.29,4.27,14.94,13.76,29.77,28.47,44.51-.08,5.33-.03,10.28.12,14.9-7.41.03-14.54.25-21.64-.07-14.45-.65-28.38,2.13-42.45,4.92-8.36,1.66-17.2.9-25.82,1.19-7.44.26-14.88.61-22.31.65-4.42.03-8.84-.73-13.26-.66-8.43.13-16.86.99-25.28.82-3.09-.06-6.18-.26-9.27-.5h3.4c-7.77-19.68-12.03-41.1-12.03-63.5,0-95.67,77.83-173.5,173.5-173.5,12.93,0,25.53,1.43,37.66,4.13l2.62-4.54c-12.95-3-26.44-4.58-40.29-4.58-98.42,0-178.5,80.08-178.5,178.5,0,22.3,4.13,43.64,11.63,63.34-5.1-.42-10.2-.92-15.31-1.12-.35-.01-.7-.01-1.06-.01Zm3.3,8.97c.58-.08,1.17-.18,1.76-.33,7.91-2.01,14.92.78,22.42,2.45-2.4,4.23-4.27,8.28-6.83,11.83-2.05,2.85-4.54,5.39-6.99,8-3.89-7.06-7.37-14.39-10.37-21.95Zm11.05,23.18c.3-.1.6-.19.9-.3,7.12-2.58,12.11-7.69,16.3-13.73,4.91-7.07,11.29-10.23,18.9-7.5,1.81.65,3.87,1.04,5.77.92,14.3-.83,28.58-2.15,42.89-2.64,8.12-.28,16.04-.65,23.71-3.64,2.26-.88,4.87-.9,7.32-1.31-11.1,10.58-24.44,13.83-38.67,13.88-11.77.04-22.09,3.42-31.26,10.93-9.75,7.98-20.35,13.92-33.62,14.37-1.64.06-3.29.44-4.93,1.02-2.58-3.91-5.02-7.91-7.32-12.01Zm11.53,18.14c4.04-.65,8.12-1.19,12.19-1.5,8.68-.68,15.11-5.8,21.64-10.64,6.27-4.65,12.36-9.49,21.24-10.01-2.83,10.34-7.28,19.74-16.89,24.34-9.27,4.44-14.91,11.73-20.05,19.56-6.55-6.79-12.61-14.06-18.12-21.74Zm48.65,47.51c-9.97-6.8-19.28-14.5-27.81-22.99,5.28-5.19,10.93-9.89,17.35-13.68,7.6-4.49,13.91-9.84,17.71-17.86,2.69-5.68,5.25-11.43,8.06-17.59,12.63,1.43,24.59-3.06,37.41-7.98-.78,2.53-1.09,4.27-1.83,5.81-2.34,4.87-5.15,9.55-7.19,14.54-1.54,3.78-4.29,5.6-7.79,6.76-2.47.82-5,1.47-7.52,2.09-7.8,1.9-13.38,6.77-17.57,12.13,7.44-2.88,15.45-5.99,23.46-9.09.46.58.92,1.16,1.38,1.73-16.19,12.36-28.89,26.96-35.66,46.13Zm2.77,1.85c.65-1.07,1.33-2.1,2.06-3.09,6.9-9.34,13.58-19.03,21.71-27.23,6.08-6.13,13.01-11.43,17.57-18.9,5.18-8.5,9.48-17.58,15.2-25.68,4.11-5.82,9.73-10.64,15.09-15.46,1.74-1.56,4.76-1.71,7.2-2.5-.56,2.59-.6,5.46-1.79,7.73-3.63,6.94-7.73,13.63-11.61,20.44-5.97,10.48-12.04,20.9-17.78,31.5-1.88,3.47-4.51,5.34-8.09,6.3-6.75,1.82-11.42,6.33-15.3,12.05,5.15-2.42,10.31-4.84,16.45-7.73-6.5,12.22-12.61,23.72-18.64,35.08-7.65-3.69-15.01-7.89-22.06-12.51Zm44.36,21.61c-6.88-2.32-13.59-5.02-20.1-8.06,3.24-3.74,6.26-7.63,9.02-11.69,7.6-11.2,15.04-22.53,22.02-34.12,6.29-10.44,11.81-21.34,17.81-31.97,3.55-6.3,7.58-12.24,15-16.03.5,2.24,1.53,4.18,1.19,5.84-1,4.92-1.7,10.19-4.04,14.49-4.17,7.68-9.02,15.1-14.39,21.99-7.79,9.98-12.24,20.97-13.51,33.52-.94,9.33-4.62,17.66-11.34,24.42-.54.55-1.1,1.09-1.66,1.62Zm2.39.78c8.04-5.14,13.42-11.25,14.75-22.65,1.01-8.63,2.06-17.62,7.88-24.85,3.36-4.16,6.93-8.15,10.41-12.22.43.09.85.18,1.28.28-4.37,22.18-10.61,44.33-3.04,66.69-10.74-1.56-21.19-4-31.28-7.25Zm59.17,9.27c-8.85,0-17.56-.61-26.09-1.77.44-7.9.35-15.8.55-23.7.12-4.74.84-9.48,1.48-14.19,1.62-12.07,6.67-23.78,3.73-36.32-.12-.52.26-1.21.51-1.77,2.39-5.35,4.76-10.7,7.2-16.02,1.76-3.83,3.77-7.45,8.45-9.08-.19,2.66-.03,4.82-.53,6.82-3.1,12.28-2.06,24.5.83,36.56,4.25,17.74,7.97,35.5,7.45,53.9-.05,1.83.22,3.68.51,5.52-1.36.03-2.72.05-4.08.05Zm5.05-.07c.61-4.77.65-9.53,1.5-14.13,2.2-11.8.99-23.59-1.76-34.77-3.43-13.95-5.07-27.81-4.29-42.01.23-4.29,1.84-8.51,2.81-12.77.58.02,1.15.04,1.73.06,1.1,1.57,2.49,3.02,3.26,4.74,2.51,5.65,4.94,11.35,7.09,17.15,1.07,2.89,1.73,6,2.06,9.07.47,4.43-.04,9,.75,13.34,2.54,13.86,6.41,27.46,5.46,41.84-.35,5.29.35,10.66.86,16-6.39.81-12.89,1.31-19.46,1.48Zm21.67-1.79c4.23-21.83.15-43.47-1.7-65.44,4.62,4.85,9.71,9.55,12.01,15.36,3.24,8.21,4.4,17.24,6.48,25.91,1.69,7.03,4.89,13.19,9.27,18.71-8.46,2.4-17.17,4.23-26.06,5.46Zm28.79-6.27c-3.24-9.44-7.3-18.76-8.78-28.47-2.2-14.34-7.56-26.68-17.21-37.1-8.33-8.99-12.91-19.53-15.01-31.32-.37-2.07.52-4.37.88-6.91,8.58,4.27,12.54,11.11,16.34,18.03,4.79,8.71,9.09,17.71,14.23,26.21,9.63,15.91,19.72,31.53,29.58,47.3.82,1.31,1.61,2.65,2.41,3.98-7.26,3.21-14.75,5.98-22.44,8.29Zm24.79-9.34c-5.21-11.96-10.46-23.99-15.94-36.57,5.66,2.65,10.46,4.91,16.41,7.7-1.61-2.2-2.31-3.95-3.6-4.77-4.63-2.96-9.52-5.51-14.21-8.39-2.31-1.42-5.13-2.78-6.43-4.94-9.81-16.35-19.41-32.84-28.8-49.43-1.89-3.34-2.63-7.33-3.9-11.02.45-.26.9-.52,1.35-.78,1.85.94,3.72,1.82,5.54,2.82,8.81,4.84,14.55,12.74,19.81,20.86,3.99,6.16,6.61,13.19,10.57,19.37,5.04,7.86,11.83,14.17,18.91,20.35,10.17,8.89,18.46,19.43,25.72,30.76-8.08,5.29-16.57,9.99-25.42,14.05Zm27.47-15.4c-6.77-19.03-20.28-33.57-36.07-46.61.52-.64,1.03-1.28,1.55-1.93,7.57,2.89,15.14,5.77,22.8,8.69-4.57-5.51-10.09-9.81-17.61-11.83-4.79-1.29-11.02-2.33-13.57-5.75-4.99-6.68-7.86-14.94-12.23-23.82,13.5,4.65,25.69,10.05,39.33,7.81.17.43.39.85.5,1.31,2.99,12.6,8.22,24.18,19.53,31.16,8.6,5.3,16.08,11.73,23.25,18.57-8.45,8.26-17.63,15.77-27.47,22.39Zm30.58-25.5c-.66-1.18-1.36-2.29-2.17-3.31-4.03-5.02-8.67-9.62-13.45-13.95-5.03-4.55-11.1-8.06-15.67-12.99-3.56-3.84-6.37-8.82-6.62-14.97,8.06,0,13.46,4.43,18.9,8.49,6.58,4.92,13.08,10.08,21.39,11.44,5.59.91,11.22,1.65,16.85,2.35-5.81,8.14-12.24,15.8-19.22,22.94Zm22.71-28.02c-2.63-1.29-5.33-2.26-8.11-2.58-11.12-1.25-21.01-4.74-28.96-11.84-12.35-11.03-26.83-13.01-42.37-13.87-7.59-.42-15.14-3.45-22.48-5.95-3.25-1.11-5.96-3.81-8.92-5.79.21-.44.42-.87.63-1.31,2.19.42,4.53.5,6.56,1.33,9.08,3.7,18.7,3.35,28.17,3.77,6.08.27,12.2-.54,18.3-.89,5.6-.32,11.26-.25,16.78-1.09,7.48-1.13,14.97-2.06,21.19,3.06,4.64,3.82,8.6,8.5,12.58,13.04,2.84,3.24,7.7,5.83,10.69,5.4-3.75-5.9-7.63-12.01-12.11-19.05,5.22-.87,9.64-1.85,14.11-2.3,4.59-.46,9.34-.1,13.87-.65-5.2,13.71-11.91,26.69-19.94,38.71Zm22.22-45.03c-1.53.01-3.06.03-4.57.07-3.87.11-7.74.37-11.61.58,7.36-19.53,11.4-40.67,11.4-62.74,0-65.23-35.19-122.39-87.56-153.53,1.36-5.16,2.42-10.33,3.18-15.49,59.24,33.12,99.38,96.46,99.38,169.02,0,21.71-3.59,42.59-10.22,62.09Z"></path></g></svg>